<svg style="position: absolute; width: 0; height: 0;" width="0" height="0" version="1.1" xmlns="http://www.w3.org/2000/svg" xmlns:xlink="http://www.w3.org/1999/xlink">
<defs>
<symbol id="torch" viewBox="0 0 819 1024">
<title>noun_81953_cc</title>
<path class="path1" d="M491.502 107.725c-32.076-60.193-126.020-73.428-126.020-73.428s43.372 50.235-12.070 89.903c-35.044 25.068-48.961 57.626-33.933 93.216 11.496 27.252 35.79 38.32 61.995 42.444-6.672-13.462-8.392-32.886-3.432-52.857 0.519-2.084 1.092-4.114 1.72-6.080 7.373 11.796 19.388 18.295 31.184 15.319 16.12-4.087 25.595-24.276 21.144-45.074-1.001-4.742-2.712-9.048-4.842-12.916 0.628 0.137 1.283 0.209 1.921 0.4 20.107 5.953 29.819 37.255 21.7 69.923-2.621 10.586-6.836 19.979-11.96 27.698 34.534-11.551 57.535-40.468 63.907-66.246 6.626-26.943 1.547-58.163-11.314-82.302z"></path>
<path class="path2" d="M346.203 523.232h0.282l31.749 137.407h2.194v33.46c-1.693 0.765-2.867 2.467-2.867 4.442s1.174 3.677 2.867 4.442v1.083c-1.693 0.783-2.867 2.467-2.867 4.46 0 1.975 1.174 3.659 2.867 4.442v1.101c-1.693 0.765-2.867 2.458-2.867 4.424 0 1.993 1.174 3.677 2.867 4.46v61.941h59.647v-61.941c1.702-0.765 2.867-2.467 2.867-4.46 0-1.975-1.174-3.659-2.867-4.442v-1.074c1.702-0.765 2.867-2.467 2.867-4.442 0-1.993-1.174-3.677-2.867-4.46v-1.083c1.702-0.765 2.867-2.458 2.867-4.442s-1.174-3.677-2.867-4.46v-33.451h2.194l31.749-137.407h0.273v-148.548h10.231v-22.756h-8.784l-25.623-31.266v-32.031h-79.735v32.031l-25.614 31.266h-8.784v22.756h10.222v148.548zM437.753 523.232h0.118v-24.066h17.604v22.847l-29.336 127.003 11.614-125.784zM401.444 499.166h17.595v22.847l-8.802 95.218-8.793-95.218v-22.847zM365.026 499.166h17.604v24.075h0.118l11.614 125.738-29.336-126.967v-22.847z"></path>
</symbol>
<symbol id="icon-facebook3" class= "facebook" viewBox="0 0 1024 1024">
<title>facebook3</title>
<path class="path1" d="M512 0c-282.77 0-512 229.23-512 512s229.23 512 512 512v-384h-128v-128h128v-96c0-88.366 71.632-160 160-160h160v128h-160c-17.674 0-32 14.328-32 32v96h176l-32 128h-144v367.87c220.828-56.838 384-257.3 384-495.87 0-282.77-229.23-512-512-512z"></path>
</symbol>
</defs>
</svg>
